<?xml version="1.0" standalone="no"?>
<!DOCTYPE svg PUBLIC "-//W3C//DTD SVG 20010904//EN"
 "http://www.w3.org/TR/2001/REC-SVG-20010904/DTD/svg10.dtd">
<svg version="1.0" xmlns="http://www.w3.org/2000/svg"
 width="359.000000pt" height="85.000000pt" viewBox="0 0 359.000000 85.000000"
 preserveAspectRatio="xMidYMid meet">
<metadata>
Created by potrace 1.15, written by Peter Selinger 2001-2017
</metadata>
<g transform="translate(0.000000,85.000000) scale(0.100000,-0.100000)"
fill="#000000" stroke="none">
<path d="M344 833 c-26 -82 -38 -94 -109 -112 -27 -6 -84 -28 -128 -47 -43
-18 -85 -34 -92 -34 -18 0 -18 -2 -3 -35 6 -14 19 -25 29 -25 9 0 59 20 111
44 51 25 104 48 117 51 21 6 23 5 17 -11 -4 -11 -21 -66 -37 -123 -17 -60 -36
-109 -46 -117 -10 -7 -40 -16 -66 -19 l-49 -7 23 -24 c15 -16 34 -24 54 -24
l32 0 -13 -57 c-7 -31 -18 -98 -24 -148 -13 -109 -4 -145 35 -145 24 0 25 3
25 53 0 51 27 199 53 288 15 51 19 53 197 74 140 17 186 29 194 50 11 30 5 30
-243 -1 -63 -8 -116 -12 -118 -10 -5 5 11 68 44 172 24 78 28 82 62 92 39 11
122 28 186 37 22 3 48 8 58 11 9 3 17 0 17 -6 0 -6 5 -8 12 -4 18 11 105 4
134 -11 14 -7 31 -21 38 -30 15 -21 46 -14 46 10 0 24 -46 62 -83 68 -83 15
-198 18 -262 7 -137 -23 -145 -22 -145 5 0 38 -55 61 -66 28z"/>
<path d="M1527 733 c-122 -173 -185 -295 -228 -437 -23 -76 -26 -81 -94 -136
-39 -31 -85 -61 -104 -65 l-34 -7 5 85 4 85 55 59 c61 67 142 205 161 276 14
53 9 68 -36 101 l-27 21 -19 -25 c-30 -40 -169 -331 -170 -358 -1 -15 -56 -70
-87 -86 -49 -25 -68 -20 -123 34 -44 43 -57 50 -92 50 -30 0 -39 -3 -35 -14 3
-7 2 -17 -3 -22 -19 -20 -70 -130 -70 -150 0 -35 47 -84 79 -84 32 0 107 54
135 97 14 22 25 29 41 25 12 -2 39 3 60 12 52 22 55 21 55 -19 0 -69 55 -135
112 -135 39 0 75 20 123 69 21 23 42 41 46 41 3 0 9 -12 12 -27 10 -45 45 -92
81 -110 32 -15 37 -15 60 1 33 21 36 51 4 40 -64 -21 -88 5 -88 96 0 47 5 61
40 112 23 31 52 81 67 110 25 52 38 75 136 250 54 98 60 137 22 162 -13 9 -28
16 -32 16 -5 0 -30 -30 -56 -67z"/>
<path d="M1785 374 c-54 -12 -141 -37 -150 -44 -5 -4 -21 -10 -35 -12 -14 -2
-24 -9 -22 -16 1 -8 -8 -26 -22 -42 -13 -16 -32 -50 -41 -74 -15 -39 -16 -50
-5 -76 7 -17 26 -38 42 -46 40 -20 74 -6 127 51 48 52 61 101 36 138 -16 25
-16 26 14 42 29 14 121 33 121 24 0 -13 -43 -125 -51 -133 -12 -13 -11 -93 1
-117 22 -41 88 -19 140 47 l35 44 6 -31 c8 -35 45 -79 68 -79 22 1 52 27 99
90 l41 55 60 0 c49 0 64 4 85 24 39 37 35 54 -9 35 -47 -19 -91 -18 -112 5
-18 18 -56 41 -69 41 -3 0 -4 -12 -1 -27 6 -34 -26 -99 -66 -132 l-28 -24 6
69 c6 63 5 71 -15 89 -26 24 -49 13 -63 -31 -5 -16 -35 -54 -66 -84 -51 -50
-56 -53 -59 -33 -2 13 12 57 32 100 32 72 34 79 20 105 -22 43 -56 55 -119 42z"/>
<path d="M2632 347 c-6 -6 -18 -38 -27 -69 -9 -32 -27 -84 -40 -118 l-23 -60
26 -21 27 -21 50 58 c51 60 173 184 181 184 2 0 -5 -24 -17 -52 -45 -114 -46
-119 -20 -139 32 -26 41 -24 89 17 36 30 42 33 42 16 0 -11 9 -31 21 -46 36
-45 104 -29 183 43 19 17 30 22 33 14 3 -7 13 -23 23 -35 16 -21 27 -23 107
-23 79 0 95 4 153 32 72 35 150 102 150 127 0 21 -12 20 -43 -4 -14 -11 -30
-20 -35 -20 -5 0 -12 -7 -16 -15 -3 -8 -11 -15 -17 -15 -7 0 -52 -16 -100 -35
-98 -39 -146 -44 -156 -18 -7 19 19 43 91 85 59 35 77 69 51 98 -34 37 -102
16 -156 -49 -60 -72 -197 -170 -219 -156 -5 3 -2 27 6 56 18 59 12 85 -21 93
-20 5 -32 -1 -61 -34 -20 -22 -38 -39 -41 -37 -2 2 2 27 8 55 11 44 10 54 -5
76 -28 44 -62 35 -143 -39 -69 -63 -71 -64 -62 -33 5 18 9 43 9 55 0 27 -33
48 -48 30z"/>
</g>
</svg>
