<?xml version="1.0" standalone="no"?>
<!DOCTYPE svg PUBLIC "-//W3C//DTD SVG 20010904//EN"
 "http://www.w3.org/TR/2001/REC-SVG-20010904/DTD/svg10.dtd">
<svg version="1.0" xmlns="http://www.w3.org/2000/svg"
 width="164.000000pt" height="152.000000pt" viewBox="0 0 164.000000 152.000000"
 preserveAspectRatio="xMidYMid meet">
<metadata>
Created by potrace 1.15, written by Peter Selinger 2001-2017
</metadata>
<g transform="translate(0.000000,152.000000) scale(0.100000,-0.100000)"
fill="#000000" stroke="none">
<path d="M587 1505 c-227 -84 -404 -272 -469 -500 -17 -62 -23 -106 -23 -195
0 -141 13 -196 77 -329 44 -92 61 -116 137 -190 166 -165 383 -241 608 -212
254 32 466 187 575 419 55 115 71 201 65 342 -5 137 -32 232 -98 343 -107 181
-338 339 -493 336 l-51 -1 61 -13 c315 -68 543 -335 561 -655 8 -130 -14 -237
-73 -359 -39 -79 -60 -108 -132 -180 -48 -47 -112 -101 -142 -118 -208 -122
-477 -129 -690 -17 -141 74 -242 177 -311 319 -56 116 -73 190 -72 320 1 130
26 230 87 340 54 96 188 229 281 277 67 35 171 72 225 81 14 2 0 5 -30 5 -30
0 -72 -6 -93 -13z"/>
<path d="M702 1480 c-75 -14 -189 -60 -254 -104 -76 -50 -178 -160 -221 -238
-60 -107 -82 -196 -82 -328 0 -197 58 -335 199 -476 91 -90 153 -130 271 -170
71 -25 94 -28 210 -28 116 0 139 3 210 28 118 40 180 80 271 170 141 141 199
279 199 476 0 197 -58 335 -199 476 -91 90 -155 130 -270 169 -88 30 -242 41
-334 25z m293 -189 c202 -72 345 -271 345 -481 0 -210 -141 -406 -345 -482
-86 -32 -254 -32 -340 0 -243 90 -385 339 -334 584 40 190 190 344 384 395 72
18 216 11 290 -16z"/>
<path d="M620 1060 l0 -50 40 0 40 0 0 -160 0 -160 -95 0 -95 0 0 35 0 35 -50
0 -50 0 0 -85 0 -85 149 0 150 0 45 139 c44 135 46 144 46 260 l0 121 -90 0
-90 0 0 -50z"/>
<path d="M837 853 l-85 -258 46 -3 c24 -2 48 0 52 5 4 4 38 104 76 222 l69
215 71 -220 72 -219 50 -3 51 -3 -87 261 -87 260 -72 0 -72 0 -84 -257z"/>
</g>
</svg>
